<svg width="12" height="6" viewBox="0 0 12 6" fill="none" xmlns="http://www.w3.org/2000/svg">
<path fill-rule="evenodd" clip-rule="evenodd" d="M5.99828 5.66675C5.83124 5.6663 5.67864 5.60443 5.56189 5.50252L0.904361 1.51035C0.75907 1.38806 0.666748 1.20485 0.666748 1.00008C0.666748 0.631891 0.965225 0.333415 1.33341 0.333415C1.49911 0.333415 1.65069 0.393864 1.7673 0.493912L1.7673 0.49391L6.0001 4.12203L10.2286 0.497621C10.3457 0.395359 10.499 0.333415 10.6667 0.333415C11.0349 0.333415 11.3334 0.631891 11.3334 1.00008C11.3334 1.20258 11.2431 1.38399 11.1006 1.50625L6.43396 5.50625L6.42919 5.51031C6.31416 5.60715 6.16592 5.6658 6.00401 5.66674L6.00008 5.66675L5.99828 5.66675Z" fill="#1A1A1A"/>
</svg>
