<svg width="24" height="24" viewBox="0 0 24 24" fill="none" xmlns="http://www.w3.org/2000/svg">
<rect width="24" height="24" rx="12" fill="white"/>
<g clip-path="url(#clip0_11_7041)">
<path fill-rule="evenodd" clip-rule="evenodd" d="M14.6668 12.0019C14.6664 12.1689 14.6045 12.3215 14.5026 12.4383L10.5104 17.0958C10.3881 17.2411 10.2049 17.3334 10.0002 17.3334C9.63197 17.3334 9.3335 17.0349 9.3335 16.6667C9.3335 16.5011 9.39395 16.3495 9.49399 16.2329L13.1221 12.0001L9.4977 7.77158C9.39544 7.65441 9.3335 7.50115 9.3335 7.33341C9.3335 6.96522 9.63197 6.66675 10.0002 6.66675C10.2027 6.66675 10.3841 6.75703 10.5063 6.89953L14.5063 11.5662L14.5104 11.571C14.6072 11.686 14.6659 11.8342 14.6668 11.9962L14.6668 12.0001L14.6668 12.0019Z" fill="#1A1A1A"/>
</g>
<defs>
<clipPath id="clip0_11_7041">
<rect width="16" height="16" fill="white" transform="translate(4 4)"/>
</clipPath>
</defs>
</svg>
