<svg width="24" height="24" viewBox="0 0 24 24" fill="none" xmlns="http://www.w3.org/2000/svg">
<rect width="24" height="24" rx="12" fill="white"/>
<g clip-path="url(#clip0_11_7035)">
<path fill-rule="evenodd" clip-rule="evenodd" d="M9.3335 12.0019C9.33394 12.1689 9.39582 12.3215 9.49773 12.4383L13.4899 17.0958C13.6122 17.2411 13.7954 17.3334 14.0002 17.3334C14.3684 17.3334 14.6668 17.0349 14.6668 16.6667C14.6668 16.5011 14.6064 16.3495 14.5063 16.2329L10.8782 12.0001L14.5026 7.77158C14.6049 7.65441 14.6668 7.50115 14.6668 7.33341C14.6668 6.96522 14.3684 6.66675 14.0002 6.66675C13.7977 6.66675 13.6163 6.75703 13.494 6.89953L9.49399 11.5662L9.48994 11.571C9.3931 11.686 9.33444 11.8342 9.33351 11.9962L9.3335 12.0001L9.3335 12.0019Z" fill="#1A1A1A"/>
</g>
<defs>
<clipPath id="clip0_11_7035">
<rect width="16" height="16" fill="white" transform="translate(4 4)"/>
</clipPath>
</defs>
</svg>
