<svg width="20" height="18" viewBox="0 0 20 18" fill="none" xmlns="http://www.w3.org/2000/svg">
<path d="M11.2399 1.15489V1.09489C11.2399 0.814893 11.3299 0.564893 11.5099 0.344893C11.6899 0.124893 11.9199 0.0148926 12.1999 0.0148926C12.4799 0.0148926 12.7299 0.104893 12.9499 0.284893C13.1699 0.464893 13.2899 0.704893 13.3099 1.00489C13.3299 1.30489 13.2399 1.55489 13.0399 1.75489C12.8399 1.95489 12.5999 2.05489 12.3199 2.05489L12.1399 2.11489L12.1999 2.20489L12.1399 2.53489L12.0199 3.49489C12.0599 3.53489 12.0799 3.57489 12.0799 3.61489L11.9599 4.21489C11.9199 4.29489 11.8799 4.35489 11.8399 4.39489L11.7799 4.63489C11.6999 4.95489 11.6299 5.21489 11.5699 5.41489C11.5099 5.61489 11.4599 5.77489 11.4199 5.89489V6.01489C11.3799 6.21489 11.3499 6.37489 11.3299 6.49489C11.3099 6.61489 11.2399 6.81489 11.1199 7.09489C11.0399 7.25489 11.0399 7.51489 11.1199 7.87489L11.1799 7.93489C11.1799 8.05489 11.2299 8.19489 11.3299 8.35489C11.4299 8.51489 11.4799 8.65489 11.4799 8.77489C11.5199 9.57489 11.4599 10.2549 11.2999 10.8149L11.4199 11.1749C11.8999 11.4149 12.0399 11.6749 11.8399 11.9549L12.1399 12.0749C12.6199 12.3149 12.9599 12.5249 13.1599 12.7049C13.3599 12.8849 13.5599 13.0749 13.7599 13.2749C13.9199 13.3149 14.0399 13.3749 14.1199 13.4549L14.2999 13.5149C15.1399 14.0749 15.9799 14.7549 16.8199 15.5549L17.0599 15.7349V15.7949L16.9999 15.9149L17.1799 16.0349H17.2399C17.3599 16.1149 17.4399 16.1549 17.4799 16.1549H17.5399C17.5799 16.1549 17.6199 16.1349 17.6599 16.0949L17.7799 16.0349C17.8599 15.9549 17.9399 15.8949 18.0199 15.8549H18.2599C18.2999 15.8549 18.2999 15.8749 18.2599 15.9149L18.0199 16.0349L17.7199 16.3949H18.1399L18.5599 16.4549C18.6799 16.4149 18.7799 16.3749 18.8599 16.3349L19.1599 16.1549C19.2799 16.1149 19.3999 16.1549 19.5199 16.2749H19.5799C19.6199 16.3149 19.5999 16.3749 19.5199 16.4549L18.7999 17.1149C18.5999 17.2749 18.4199 17.3749 18.2599 17.4149L17.4799 17.9549C17.4399 17.9949 17.3999 17.9949 17.3599 17.9549L17.1799 17.7149L17.0599 17.4749L16.9099 17.2649L16.7299 17.0249L16.5799 16.8449L16.4599 16.6949L16.2199 16.5149C16.1399 16.5149 16.0599 16.4949 15.9799 16.4549L15.1999 15.8549C15.0799 15.8549 14.9399 15.7949 14.7799 15.6749C14.1799 15.1549 13.7799 14.8349 13.5799 14.7149L13.2199 14.4749L12.4999 14.3549C12.2599 14.3149 11.9399 14.1949 11.5399 13.9949L11.0599 13.7549C10.7399 13.5949 10.5199 13.5149 10.3999 13.5149L10.1599 13.3949C9.9999 13.3549 9.8799 13.3149 9.7999 13.2749L9.6799 13.1549C9.5999 13.1549 9.5199 13.1749 9.4399 13.2149L8.2399 13.8149L6.7399 14.4749C6.3399 14.7949 5.9599 15.0549 5.5999 15.2549L4.9399 15.5549L3.9199 16.2749C3.8399 16.3549 3.7599 16.3549 3.6799 16.2749L3.5599 16.3949C3.4399 16.4349 3.3599 16.4549 3.3199 16.4549L3.0799 16.5749V16.6949H2.9599L2.8399 16.8749C2.7599 17.0349 2.6799 17.1249 2.5999 17.1449C2.5199 17.1649 2.4699 17.1949 2.4499 17.2349C2.4299 17.2749 2.4099 17.3049 2.3899 17.3249L2.2699 17.4449L2.0899 17.5649L1.8199 17.5349L1.4599 17.5949L1.2199 17.6549C1.0199 17.6949 0.859902 17.6649 0.739902 17.5649C0.619902 17.4649 0.519902 17.3149 0.439902 17.1149C0.359902 16.9949 0.399902 16.8949 0.559902 16.8149L0.619902 16.7549C0.659902 16.7149 0.719902 16.6949 0.799902 16.6949H1.1599L1.6399 16.5149L1.8799 16.4549C1.8799 16.3749 1.8999 16.3149 1.9399 16.2749C1.9799 16.2349 2.0399 16.2149 2.1199 16.2149V16.1549C2.0799 16.0749 2.0599 15.9949 2.0599 15.9149C2.0199 15.8349 2.0099 15.7749 2.0299 15.7349C2.0499 15.6949 2.0699 15.6749 2.0899 15.6749H2.1199L2.1799 15.8549C2.2199 16.0549 2.2799 16.1149 2.3599 16.0349L2.4199 15.9149C2.4599 15.8349 2.5199 15.7949 2.5999 15.7949L2.7199 15.9149L2.8399 15.7949L2.7799 15.7349C2.7799 15.6949 2.7999 15.6749 2.8399 15.6749L3.0799 15.4349C3.2799 15.1949 3.5199 14.9749 3.7999 14.7749C4.3599 14.3349 4.9599 13.9949 5.5999 13.7549C5.7999 13.5549 6.0199 13.4549 6.2599 13.4549C6.4199 13.1749 6.6599 12.8749 6.9799 12.5549C7.2599 12.3549 7.4599 12.2149 7.5799 12.1349C7.6599 11.9749 7.7599 11.8949 7.8799 11.8949H7.9399L8.0599 11.7749C8.1399 11.7349 8.1999 11.6949 8.2399 11.6549V11.3549C8.2399 11.1549 8.2599 10.9949 8.2999 10.8749C8.3399 10.7549 8.4399 10.6949 8.5999 10.6949L8.8399 10.4549C8.7599 10.2949 8.7199 10.1149 8.7199 9.91489H8.6599C8.5799 9.79489 8.5399 9.67489 8.5399 9.55489C8.4199 9.35489 8.3399 9.19489 8.2999 9.07489H8.1199C8.0799 9.19489 7.9799 9.27489 7.8199 9.31489L7.7599 9.43489C7.5999 9.71489 7.4599 9.92489 7.3399 10.0649C7.2199 10.2049 6.9999 10.3749 6.6799 10.5749C6.4799 10.7749 6.3399 10.9949 6.2599 11.2349C6.2199 11.3549 6.2199 11.4749 6.2599 11.5949L6.1999 11.7149H6.2599C6.2599 11.7949 6.2799 11.8349 6.3199 11.8349H6.3799C6.4599 11.8749 6.4999 11.9249 6.4999 11.9849C6.4999 12.0449 6.4399 12.0649 6.3199 12.0449C6.1999 12.0249 6.1099 11.9849 6.0499 11.9249C5.9899 11.8649 5.9399 11.8349 5.8999 11.8349L5.7199 12.0149C5.6399 12.1349 5.5599 12.1849 5.4799 12.1649C5.3999 12.1449 5.3799 12.1149 5.4199 12.0749L5.4799 12.0149C5.5199 11.9349 5.5199 11.8949 5.4799 11.8949L4.9999 12.0149C4.9599 12.0549 4.9099 12.0549 4.8499 12.0149C4.7899 11.9749 4.7999 11.9349 4.8799 11.8949L5.1799 11.7749C5.1799 11.7349 5.1599 11.7149 5.1199 11.7149C4.9599 11.7949 4.7999 11.8149 4.6399 11.7749L4.3399 11.7149L4.2799 11.6549C4.2799 11.6149 4.2999 11.5949 4.3399 11.5949C4.4999 11.6349 4.6999 11.6149 4.9399 11.5349L5.3599 11.3549L5.8399 10.8149L5.8999 10.6949C6.0599 10.3749 6.2299 10.0849 6.4099 9.82489C6.5899 9.56489 6.7799 9.35489 6.9799 9.19489L7.0399 8.95489C7.1199 8.79489 7.1999 8.65489 7.2799 8.53489C7.3599 8.41489 7.4599 8.25489 7.5799 8.05489L7.7599 7.81489C7.9199 7.57489 8.0999 7.45489 8.2999 7.45489L8.4799 7.27489C8.5199 7.23489 8.5399 7.17489 8.5399 7.09489L8.6599 6.97489L8.5999 6.91489C8.3599 6.71489 8.2399 6.53489 8.2399 6.37489C8.1999 6.09489 8.2899 5.85489 8.5099 5.65489C8.7299 5.45489 8.9499 5.36489 9.1699 5.38489C9.3899 5.40489 9.5599 5.47489 9.6799 5.59489L9.7999 5.71489C9.8399 5.71489 9.8599 5.73489 9.8599 5.77489L10.0999 5.89489V6.07489C10.1799 6.15489 10.2199 6.21489 10.2199 6.25489C10.2999 6.13489 10.4199 5.99489 10.5799 5.83489L10.8799 4.87489C10.8799 4.71489 10.9199 4.55489 10.9999 4.39489L11.1199 4.21489V4.09489L11.2999 3.37489H11.4199L11.5999 2.65489C11.6399 2.53489 11.6399 2.39489 11.5999 2.23489L11.3599 1.63489L11.2399 1.15489Z" fill="black"/>
</svg>
