<svg width="12" height="12" viewBox="0 0 12 12" fill="none" xmlns="http://www.w3.org/2000/svg">
<path fill-rule="evenodd" clip-rule="evenodd" d="M5.33333 0C2.38781 0 0 2.38781 0 5.33333C0 8.27885 2.38781 10.6667 5.33333 10.6667C6.56581 10.6667 7.70064 10.2486 8.60376 9.54657L10.1953 11.1381C10.4556 11.3984 10.8777 11.3984 11.1381 11.1381C11.3984 10.8777 11.3984 10.4556 11.1381 10.1953L9.54657 8.60376C10.2486 7.70064 10.6667 6.56581 10.6667 5.33333C10.6667 2.38781 8.27885 0 5.33333 0ZM1.33333 5.33333C1.33333 3.12419 3.12419 1.33333 5.33333 1.33333C7.54247 1.33333 9.33333 3.12419 9.33333 5.33333C9.33333 7.54247 7.54247 9.33333 5.33333 9.33333C3.12419 9.33333 1.33333 7.54247 1.33333 5.33333Z" fill="#1A1A1A"/>
</svg>
