<svg width="36" height="24" viewBox="0 0 36 24" fill="none" xmlns="http://www.w3.org/2000/svg">
<path d="M9.97673 0.842145C8.53536 2.44672 7.91959 3.40123 7.58908 4.53746C7.28736 5.57426 7.44713 6.43003 8.04919 7.02386C8.52713 7.497 9.03456 7.67323 9.91228 7.67323C10.6261 7.67323 11.2371 7.55666 12.1319 7.25152C12.6222 7.08832 28.4485 0.523288 28.5562 0.442374C28.5584 0.440443 28.5601 0.438069 28.5613 0.435409C28.5625 0.432749 28.5631 0.429864 28.5631 0.426945C28.5631 0.424027 28.5625 0.421141 28.5613 0.418481C28.5601 0.415821 28.5584 0.413447 28.5562 0.411517C28.5479 0.403288 25.0762 1.30294 20.8391 2.41243C16.6055 3.5178 12.9754 4.45997 12.7731 4.50249C12.2135 4.61906 11.2974 4.61014 10.9011 4.48534C10.6515 4.40774 10.4228 4.27456 10.2322 4.0958C10.0416 3.91705 9.89398 3.69739 9.8005 3.45334C9.7141 3.24214 9.70108 3.12626 9.70108 2.70866C9.70588 2.09357 9.81765 1.68077 10.1962 0.906602C10.3381 0.618602 10.4499 0.369002 10.441 0.360088C10.4286 0.351859 10.2215 0.570602 9.97673 0.842145ZM3.45559 11.8033C1.95799 12.1427 0.939018 13.4723 0.869761 15.1839C0.835475 16.0019 0.994561 16.6122 1.39433 17.2321C1.60553 17.5461 2.27616 18.2168 2.72805 18.561C3.51525 19.1589 3.73056 19.4476 3.68736 19.8474C3.65719 20.097 3.52828 20.2732 3.27456 20.3939C2.65948 20.6991 1.77765 20.3205 1.05902 19.4428L0.899933 19.2495V22.8241L1.18793 22.9146C1.77285 23.0997 1.96279 23.121 2.98588 23.121C3.90268 23.121 3.9973 23.1128 4.29833 23.0223C5.20622 22.7384 5.9461 22.1192 6.3589 21.3059C6.43639 21.1551 6.53513 20.9356 6.57833 20.8108L6.65993 20.5832V21.8175L6.66405 23.0565H9.5893L9.59822 20.3727L9.61125 17.6881L10.6432 20.3596L11.68 23.0353L12.9363 23.0483L14.1925 23.0565V11.8287H11.2672L11.2583 14.2636L11.246 16.6945L10.5575 14.2636L9.86907 11.8293H6.66405V15.1283C6.65993 18.4197 6.65993 18.4321 6.57833 18.2085C6.37193 17.6325 5.95845 17.1073 5.30976 16.5999C5.05536 16.4017 4.7029 16.1219 4.52188 15.98C4.09605 15.644 3.91159 15.3779 3.91159 15.094C3.91159 14.913 3.93216 14.8575 4.06588 14.7155C4.2421 14.5173 4.43616 14.4399 4.74542 14.4447C5.08553 14.4529 5.59708 14.7237 5.97559 15.0981L6.2773 15.3951V12.1818L6.00165 12.07C5.42085 11.8417 5.09376 11.7772 4.38405 11.7601C3.91982 11.7512 3.63593 11.7642 3.4549 11.8033H3.45559ZM31.7523 11.8245C31.5808 11.8677 31.2709 11.9836 31.0686 12.0872C30.4446 12.3964 29.8384 13.0595 29.5628 13.7301C29.5024 13.881 29.451 14.0099 29.4428 14.014C29.4339 14.0229 29.3605 13.8892 29.2789 13.713C28.7797 12.6419 27.795 12.0481 26.2378 11.876C25.9196 11.8376 24.8005 11.8287 22.456 11.8376L19.1269 11.8506L18.3911 13.4161L17.6554 14.9781L17.6423 13.4031L17.6341 11.8287H14.6224V23.0565H17.6341V20.6991L17.6382 18.3464L18.5461 20.6991L19.4581 23.0565H25.1619L25.1756 21.5164C25.1797 20.673 25.1797 19.6623 25.1756 19.2714C25.1708 18.8799 25.1838 18.5912 25.201 18.6255C25.2181 18.6597 25.5877 19.6712 26.0224 20.8712L26.8096 23.0517L28.6206 23.0737C29.6149 23.0874 30.8108 23.108 31.2791 23.1258C32.0368 23.1471 32.161 23.1381 32.5052 23.0572C32.9867 22.9431 33.4373 22.7249 33.8253 22.4178C34.2133 22.1107 34.5293 21.7223 34.7509 21.2799C35.0094 20.7635 35.104 20.3466 35.1294 19.6581C35.1856 18.1825 34.7509 17.3823 33.3143 16.3029C32.3077 15.55 32.0883 15.1797 32.3886 14.7539C32.6903 14.3288 33.3918 14.3541 34.011 14.8143C34.2688 15.0035 34.755 15.5027 34.755 15.5754C34.755 15.5973 34.777 15.6145 34.7982 15.6145C34.8243 15.6145 34.8414 15.0124 34.8414 13.8981V12.1852L34.5918 12.0735C34.1015 11.854 33.6839 11.7765 32.8412 11.7594C32.1911 11.7464 32.0149 11.7553 31.7523 11.8239V11.8245ZM22.142 19.3873L22.1296 21.7016L21.11 19.2412C20.5463 17.8904 20.0862 16.7672 20.0862 16.7459C20.0862 16.7288 20.5456 15.7564 21.1052 14.5907L22.1296 12.465L22.142 14.7711C22.1468 16.0403 22.1468 18.118 22.142 19.3873ZM25.984 14.4399C26.401 14.6764 26.6204 15.1496 26.569 15.7221C26.5086 16.4703 26.0355 16.9866 25.4115 16.9907H25.1619V14.2677L25.4588 14.2897C25.6871 14.3068 25.8119 14.3452 25.984 14.4405V14.4399ZM30.2341 17.7786C30.4364 17.9891 30.7978 18.3162 31.0343 18.5055C31.2709 18.6947 31.5548 18.9224 31.6707 19.017C32.3248 19.5676 32.1527 20.3466 31.3436 20.4927C30.8149 20.5873 29.8768 20.0709 29.4469 19.4476C29.3783 19.3482 29.305 19.2714 29.2878 19.2714C29.2659 19.2714 29.2446 19.6924 29.2398 20.204L29.2275 21.1338L28.5692 19.7699C28.2037 19.017 27.915 18.4019 27.9239 18.3978C28.371 18.1743 28.4958 18.0837 28.7797 17.8081C29.0382 17.5544 29.1459 17.4035 29.2919 17.1114L29.4771 16.737L29.6704 17.0641C29.7781 17.2492 30.0236 17.5592 30.2341 17.7786Z" fill="black"/>
</svg>
