<svg width="46" height="16" viewBox="0 0 46 16" fill="none" xmlns="http://www.w3.org/2000/svg">
<path d="M3.4771 0.564387C1.46683 1.01174 0.099042 2.7641 0.00607647 5.01984C-0.0399461 6.09801 0.173599 6.90234 0.710221 7.71933C0.99372 8.13324 1.89392 9.0171 2.5005 9.47078C3.55718 10.2588 3.8462 10.6393 3.78821 11.1662C3.74771 11.4952 3.57466 11.7274 3.2341 11.8865C2.40845 12.2887 1.22475 11.7898 0.260121 10.633L0.0465763 10.3781V15.0894L0.433166 15.2087C1.21831 15.4527 1.47328 15.4807 2.84659 15.4807C4.07723 15.4807 4.20425 15.4698 4.60833 15.3505C5.82701 14.9764 6.82017 14.1603 7.37429 13.0885C7.4783 12.8896 7.61084 12.6004 7.66883 12.436L7.77836 12.1359V13.7627L7.78389 15.3957H11.7105L11.7225 11.8585L11.74 8.32032L13.1253 11.8413L14.517 15.3677L16.2033 15.3849L17.8895 15.3957V0.597826H13.9629L13.9509 3.80702L13.9343 7.01079L13.0102 3.80702L12.0861 0.598729H7.78389V4.94664C7.77836 9.28461 7.77836 9.30088 7.66883 9.00626C7.39177 8.24711 6.83674 7.55485 5.966 6.88608C5.62451 6.62489 5.1514 6.25617 4.9084 6.06909C4.3368 5.62626 4.0892 5.2756 4.0892 4.90145C4.0892 4.66286 4.11681 4.58966 4.2963 4.40259C4.53285 4.1414 4.79334 4.03928 5.20846 4.04561C5.66501 4.05645 6.35167 4.41343 6.85975 4.90688L7.26475 5.2982V1.06325L6.89473 0.915943C6.11511 0.614996 5.67605 0.530045 4.72339 0.507451C4.10024 0.495702 3.7201 0.512873 3.4771 0.564387ZM41.4604 0.592403C41.2303 0.649339 40.8143 0.802073 40.5427 0.938538C39.7051 1.34613 38.8914 2.22005 38.5214 3.10391C38.4404 3.30273 38.3714 3.47264 38.3603 3.47806C38.3484 3.48981 38.2499 3.31358 38.1404 3.08131C37.4703 1.66967 36.1485 0.887024 34.0582 0.660184C33.6311 0.609575 32.1289 0.597826 28.9819 0.609575L24.5131 0.626745L23.5254 2.68999L22.5378 4.74872L22.5203 2.67282L22.5093 0.597826H18.4666V15.3957H22.5093V12.2887L22.5148 9.18791L23.7335 12.2887L24.9577 15.3957H32.614L32.6324 13.3659C32.6379 12.2543 32.6379 10.9222 32.6324 10.4071C32.6259 9.89102 32.6434 9.51055 32.6664 9.55573C32.6894 9.60092 33.1856 10.9339 33.7691 12.5155L34.8258 15.3894L37.2567 15.4183C38.5914 15.4364 40.1966 15.4635 40.8253 15.487C41.8424 15.515 42.009 15.5033 42.4711 15.3966C43.1174 15.2463 43.7223 14.9586 44.2431 14.5539C44.7639 14.1491 45.188 13.6372 45.4856 13.0541C45.8326 12.3736 45.9596 11.8241 45.9936 10.9168C46.0691 8.97192 45.4856 7.91725 43.5572 6.49475C42.206 5.50244 41.9114 5.01442 42.3146 4.4532C42.7196 3.89288 43.6612 3.92631 44.4924 4.53273C44.8385 4.78216 45.4911 5.44009 45.4911 5.53588C45.4911 5.5648 45.5205 5.5874 45.5491 5.5874C45.584 5.5874 45.6071 4.79391 45.6071 3.32532V1.06777L45.272 0.920463C44.6139 0.631265 44.0533 0.529141 42.9221 0.506548C42.0495 0.489377 41.813 0.502028 41.4604 0.592403ZM28.5603 10.5598L28.5437 13.6099L27.175 10.3673C26.4184 8.58692 25.8008 7.10659 25.8008 7.07857C25.8008 7.05598 26.4175 5.77447 27.1686 4.23811L28.5437 1.4365L28.5603 4.47579C28.5667 6.14862 28.5667 8.88696 28.5603 10.5598ZM33.7176 4.03928C34.2772 4.35107 34.5718 4.97466 34.5027 5.72928C34.4217 6.71527 33.7866 7.39579 32.949 7.40121H32.614V3.81244L33.0125 3.84136C33.319 3.86396 33.4866 3.91366 33.7176 4.03928ZM39.4225 8.43961C39.6941 8.71706 40.1792 9.14815 40.4967 9.39758C40.8143 9.64701 41.1953 9.94706 41.3509 10.0718C42.229 10.7975 41.998 11.8241 40.9118 12.0166C40.2022 12.1413 38.943 11.4608 38.3659 10.6393C38.2738 10.5083 38.1753 10.4071 38.1523 10.4071C38.1229 10.4071 38.0943 10.962 38.0879 11.6362L38.0713 12.8616L37.1877 11.0641C36.6971 10.0718 36.3096 9.26111 36.3215 9.25569C36.9217 8.96107 37.0892 8.84178 37.4703 8.47847C37.8173 8.14409 37.9618 7.94526 38.1578 7.56027L38.4064 7.06682L38.6659 7.49791C38.8104 7.74192 39.14 8.15041 39.4225 8.43961Z" fill="black"/>
</svg>
